# xmcd CD database file
#
# Track frame offsets:
#	150
#	14081
#	28773
#	42319
#	53013
#	62776
#	74981
#	88086
#	100254
#	126271
#	138923
#	154225
#	168814
#	210606
#	223277
#	239248
#	253647
#	264539
#	275952
#	291103
#	300049
#	308401
#	320691
#	333910
#
# Disc length: 4581 seconds
#
# Revision: 0
# Processed by: cddbd v1.4PL0 Copyright (c) Steve Scherf et al.
# Submitted via: CDex 1.50Beta7
#
DISCID=7611e318
DTITLE=garner/peterson - triomphe2-13
DYEAR=1951
DGENRE=Jazz
TTITLE0=garner-movin'around
TTITLE1=garner-night and day
TTITLE2=garner-yesterdays
TTITLE3=garner-sweet georgia brown
TTITLE4=garner-i know that you know
TTITLE5=garner-laura
TTITLE6=garner-frankie and johnny fantasy
TTITLE7=garner-blues garni
TTITLE8=garner-lover
TTITLE9=garner-love for sale
TTITLE10=garner-honeysukle rose
TTITLE11=garner-please don't talk about me when i'm gone
TTITLE12=garner-blue lou
TTITLE13=peterson-lover, come back to me
TTITLE14=peterson-all the things you are
TTITLE15=peterson-oscar's blues
TTITLE16=peterson-exactly like you
TTITLE17=peterson-pennies from heaven
TTITLE18=peterson-body and soul
TTITLE19=peterson-just you, just me
TTITLE20=peterson-air mail special
TTITLE21=peterson-i got rhythm
TTITLE22=peterson-tea for two
TTITLE23=peterson-rose room
EXTD=YEAR: 1951
EXTT0=
EXTT1=
EXTT2=
EXTT3=
EXTT4=
EXTT5=
EXTT6=
EXTT7=
EXTT8=
EXTT9=
EXTT10=
EXTT11=
EXTT12=
EXTT13=
EXTT14=
EXTT15=
EXTT16=
EXTT17=
EXTT18=
EXTT19=
EXTT20=
EXTT21=
EXTT22=
EXTT23=
PLAYORDER=
